<?xml version="1.0" standalone="no"?>
<!DOCTYPE svg PUBLIC "-//W3C//DTD SVG 20010904//EN"
 "http://www.w3.org/TR/2001/REC-SVG-20010904/DTD/svg10.dtd">
<svg version="1.0" xmlns="http://www.w3.org/2000/svg"
 width="500.000000pt" height="500.000000pt" viewBox="0 0 500.000000 500.000000"
 preserveAspectRatio="xMidYMid meet">

<g transform="translate(0.000000,500.000000) scale(0.100000,-0.100000)"
fill="#000000" stroke="none">
<path d="M1038 3683 c6 -2 18 -2 25 0 6 3 1 5 -13 5 -14 0 -19 -2 -12 -5z"/>
<path d="M890 3656 c-126 -47 -318 -161 -435 -259 -132 -111 -185 -172 -185
-214 0 -7 -8 -13 -18 -13 -11 0 -27 -10 -38 -22 -10 -12 -13 -18 -6 -14 19 12
15 -3 -28 -80 -42 -76 -47 -89 -30 -79 6 3 10 -2 10 -12 1 -14 3 -13 14 6 8
14 12 30 9 37 -5 15 16 58 24 50 9 -9 32 26 33 49 1 22 22 55 36 55 5 0 29 25
54 56 67 84 200 205 295 268 46 31 143 85 216 121 72 36 121 65 108 64 -13 0
-40 -6 -59 -13z m-460 -321 c-13 -14 -26 -23 -28 -20 -7 7 29 45 41 45 6 0 0
-11 -13 -25z m-62 -57 c-2 -6 -10 -14 -16 -16 -7 -2 -10 2 -6 12 7 18 28 22
22 4z"/>
<path d="M106 2890 c-15 -41 -30 -103 -33 -139 -4 -43 -12 -70 -24 -82 -15
-15 -17 -24 -9 -44 22 -59 3 -150 -19 -93 -8 19 -10 15 -11 -27 -3 -107 3
-162 26 -244 14 -47 30 -88 35 -92 12 -7 119 -180 119 -191 0 -20 -18 -4 -44
37 -46 72 -44 49 2 -35 53 -95 84 -139 95 -134 16 6 54 -22 44 -32 -4 -4 -13
-2 -19 4 -29 29 -27 8 4 -30 133 -170 335 -317 518 -377 171 -56 404 -65 590
-22 121 28 294 86 357 120 69 38 68 25 -2 -21 -181 -119 -423 -162 -775 -135
-130 10 -118 -5 25 -30 l100 -18 -65 -6 c-60 -6 -59 -6 15 -3 294 11 464 53
700 171 93 46 124 58 110 42 l-20 -22 30 17 c17 10 46 31 65 47 l35 30 -38
-22 c-21 -12 -40 -19 -43 -16 -8 8 122 97 148 102 41 7 180 171 258 306 107
181 194 448 124 380 -5 -6 -32 -2 -71 12 -46 16 -67 19 -79 12 -9 -6 -35 -64
-58 -130 -53 -150 -80 -202 -155 -302 -179 -238 -421 -392 -679 -434 -159 -25
-447 -5 -602 43 -317 98 -575 388 -657 738 -9 41 -24 81 -33 87 -12 10 -12 14
-2 21 10 7 11 28 4 95 -6 72 -4 106 14 204 12 65 31 144 42 175 14 38 18 66
13 84 -7 26 -9 22 -35 -46z m-56 -461 c0 -11 -4 -17 -10 -14 -5 3 -10 15 -10
26 0 11 5 17 10 14 6 -3 10 -15 10 -26z m20 -124 c9 -11 10 -19 3 -26 -6 -6
-13 -1 -21 16 -13 28 -2 34 18 10z m2280 -36 c0 -5 -4 -9 -10 -9 -5 0 -10 7
-10 16 0 8 5 12 10 9 6 -3 10 -10 10 -16z m-2265 -46 c4 -14 2 -23 -4 -23 -6
0 -11 3 -11 8 0 4 -3 18 -6 32 -8 31 11 16 21 -17z m2121 -287 c-41 -84 -203
-262 -221 -244 -2 2 16 28 41 58 128 156 166 205 181 233 28 54 27 10 -1 -47z
m-1966 -61 c-1 -5 -12 3 -25 18 -14 15 -25 33 -25 40 1 7 12 -1 25 -18 14 -16
25 -34 25 -40z m1971 -8 c-25 -38 -28 -19 -4 26 9 18 18 26 20 19 3 -7 -5 -27
-16 -45z m-56 -66 c-22 -43 -38 -49 -18 -7 9 20 20 36 25 36 5 0 2 -13 -7 -29z
m-1815 -54 c0 -6 -11 0 -25 13 -14 13 -25 28 -25 33 0 6 11 0 25 -13 14 -13
25 -28 25 -33z m1740 -31 c-17 -25 -35 -46 -40 -46 -6 0 6 23 26 50 45 63 58
59 14 -4z m-1681 -17 c18 -11 31 -22 28 -25 -6 -7 -77 28 -77 38 0 13 12 10
49 -13z m1551 -34 c0 -8 -4 -15 -10 -15 -5 0 -7 7 -4 15 4 8 8 15 10 15 2 0 4
-7 4 -15z m-1505 -15 c3 -5 -1 -10 -10 -10 -9 0 -13 5 -10 10 3 6 8 10 10 10
2 0 7 -4 10 -10z m1462 -35 c-4 -8 -11 -15 -17 -15 -7 0 -7 6 0 21 13 23 26
19 17 -6z m-1412 -5 c3 -5 -1 -10 -9 -10 -8 0 -18 5 -21 10 -3 6 1 10 9 10 8
0 18 -4 21 -10z"/>
<path d="M2421 2763 c-50 -26 -74 -64 -78 -125 -5 -61 16 -110 60 -142 39 -29
125 -29 164 0 82 60 83 197 2 257 -38 28 -106 32 -148 10z m135 -47 c30 -30
34 -40 34 -86 0 -105 -75 -159 -159 -116 -35 19 -51 55 -51 117 0 45 4 55 34
85 26 26 42 34 71 34 29 0 45 -8 71 -34z"/>
<path d="M2000 2620 c0 -127 2 -150 15 -150 12 0 15 14 15 65 l0 65 73 0 c97
0 117 -14 117 -81 0 -42 3 -49 20 -49 17 0 20 7 20 50 0 50 -23 90 -52 90 -7
0 -3 8 9 18 47 37 49 107 4 131 -11 6 -65 11 -120 11 l-101 0 0 -150z m183
119 c42 -23 49 -57 17 -89 -16 -16 -33 -20 -95 -20 l-75 0 0 60 0 60 66 0 c36
0 75 -5 87 -11z"/>
<path d="M2733 2620 c49 -144 53 -150 79 -150 30 0 28 -5 68 163 13 53 27 97
31 97 7 0 36 -101 60 -207 11 -48 15 -53 40 -53 16 0 30 7 34 18 11 28 95 274
95 278 0 2 -8 4 -18 4 -14 0 -27 -28 -62 -135 -24 -74 -47 -135 -50 -135 -3 0
-21 61 -39 136 -33 132 -34 135 -59 132 -24 -3 -28 -11 -52 -108 -15 -58 -30
-118 -34 -134 -4 -16 -11 -25 -15 -20 -5 5 -27 66 -51 137 -34 103 -45 127
-60 127 -17 0 -14 -15 33 -150z"/>
<path d="M3210 2619 l0 -152 84 5 c100 7 138 26 166 83 25 51 25 99 2 144 -26
52 -71 71 -169 71 l-83 0 0 -151z m170 113 c42 -20 60 -53 60 -107 0 -83 -60
-131 -155 -123 l-40 3 -3 109 c-1 61 0 116 2 123 8 19 94 16 136 -5z"/>
<path d="M3570 2620 c0 -127 2 -150 15 -150 13 0 15 23 15 150 0 127 -2 150
-15 150 -13 0 -15 -23 -15 -150z"/>
<path d="M3700 2620 c0 -143 1 -150 20 -150 18 0 20 7 20 70 l0 70 90 0 c73 0
90 3 90 15 0 12 -17 15 -90 15 l-90 0 0 55 0 55 90 0 c53 0 90 4 90 10 0 6
-43 10 -110 10 l-110 0 0 -150z"/>
<path d="M3988 2738 c11 -18 41 -67 66 -108 36 -58 46 -84 46 -117 0 -36 3
-43 20 -43 17 0 20 7 20 46 0 40 9 62 61 146 34 54 59 102 56 105 -14 14 -37
-11 -83 -91 -27 -47 -52 -86 -56 -86 -4 0 -30 41 -59 90 -37 65 -57 90 -71 90
-19 0 -19 0 0 -32z"/>
<path d="M898 2355 c-103 -143 -80 -134 -337 -136 -122 -1 -146 -3 -111 -11
213 -43 256 -62 289 -131 20 -42 21 -47 6 -128 -8 -46 -23 -112 -34 -147 -11
-34 -16 -60 -11 -57 8 5 115 192 157 275 12 25 31 88 42 140 10 52 35 140 55
195 20 54 35 104 34 111 -2 6 -42 -44 -90 -111z"/>
<path d="M1124 2388 c24 -35 66 -92 91 -128 l45 -66 -50 -169 c-28 -94 -53
-179 -56 -190 -3 -11 13 17 36 63 50 101 118 175 177 192 39 12 46 11 109 -19
37 -17 100 -54 141 -81 40 -28 73 -48 73 -44 0 3 -56 65 -125 138 -97 104
-139 141 -193 170 -38 21 -117 74 -176 117 -58 43 -109 79 -112 79 -3 0 15
-28 40 -62z"/>
<path d="M709 2411 c-34 -27 -32 -86 5 -117 37 -33 79 -31 106 3 27 35 21 79
-16 111 -31 27 -64 28 -95 3z"/>
<path d="M1095 2258 c-74 -40 -53 -138 30 -138 75 0 114 86 59 129 -29 23 -58
26 -89 9z"/>
<path d="M330 1843 c21 -29 60 -65 130 -117 29 -23 20 -14 -79 80 -42 39 -64
55 -51 37z"/>
<path d="M499 1696 c18 -22 150 -100 157 -93 3 2 -23 22 -58 42 -35 21 -74 45
-88 53 -23 15 -24 14 -11 -2z"/>
<path d="M1490 1345 c-30 -7 -44 -13 -30 -13 14 0 48 6 75 13 65 16 27 17 -45
0z"/>
</g>
</svg>
